<svg xmlns="http://www.w3.org/2000/svg" width="244.57" height="300" id="apple"><path fill="#999" d="M134.942 26.107C154.653.127 182.057 0 182.057 0s4.076 24.426-15.506 47.955c-20.909 25.125-44.675 21.013-44.675 21.013s-4.463-19.759 13.066-42.861Zm-10.559 59.972c10.141 0 28.961-13.939 53.458-13.939 42.168 0 58.756 30.005 58.756 30.005s-32.445 16.588-32.445 56.839c0 45.406 40.417 61.054 40.417 61.054s-28.253 79.522-66.415 79.522c-17.528 0-31.154-11.812-49.622-11.812-18.82 0-37.5 12.252-49.661 12.252C44.025 300 0 224.566 0 163.929c0-59.658 37.264-90.954 72.216-90.954 22.722 0 40.354 13.1 52.167 13.1Z"></path></svg>